<?xml version="1.0" encoding="iso-8859-1"?>
<!-- Generator: Adobe Illustrator 19.0.0, SVG Export Plug-In . SVG Version: 6.00 Build 0)  -->
<svg version="1.1" id="Capa_1" xmlns="http://www.w3.org/2000/svg" xmlns:xlink="http://www.w3.org/1999/xlink" x="0px" y="0px"
	 viewBox="0 0 511.811 511.811" style="enable-background:new 0 0 511.811 511.811;" xml:space="preserve">
<rect x="211.926" y="435.836" style="fill:#656D78;" width="95.96" height="31.988"/>
<path style="fill:#965353;" d="M259.904,139.949c-75.972,0-91.966,15.994-91.966,15.994l7.997,23.991v7.997h167.938v-7.997
	l7.998-23.991C351.871,155.943,335.877,139.949,259.904,139.949z"/>
<g style="opacity:0.2;">
	<path style="fill:#FFFFFF;" d="M175.935,155.943c0,0,15.553-15.369,87.968-15.939c-1.358-0.016-2.597-0.055-3.999-0.055
		c-75.972,0-91.966,15.994-91.966,15.994l7.997,23.991h7.997L175.935,155.943z"/>
</g>
<g style="opacity:0.2;">
	<path d="M343.873,155.943c0,0-15.557-15.369-87.967-15.939c1.359-0.016,2.597-0.055,3.998-0.055
		c75.973,0,91.967,15.994,91.967,15.994l-7.998,23.991h-7.996L343.873,155.943z"/>
</g>
<rect x="47.986" y="187.936" style="fill:#656D78;" width="415.85" height="87.967"/>
<g style="opacity:0.2;">
	<rect x="47.986" y="187.936" width="415.85" height="87.967"/>
</g>
<rect x="47.986" y="275.896" style="fill:#656D78;" width="415.85" height="47.982"/>
<g style="opacity:0.1;">
	<rect x="47.986" y="275.896" width="415.85" height="47.982"/>
</g>
<g>
	<rect x="463.826" y="267.906" style="fill:#656D78;" width="15.994" height="215.92"/>
	<rect x="31.986" y="267.906" style="fill:#656D78;" width="15.994" height="215.92"/>
</g>
<rect x="79.965" y="275.896" style="fill:#E6E9ED;" width="351.87" height="15.994"/>
<path style="fill:#FFCE54;" d="M295.891,227.916c0,4.413-16.111,7.997-35.987,7.997c-19.875,0-35.986-3.584-35.986-7.997
	c0-4.42,16.111-7.997,35.986-7.997C279.78,219.919,295.891,223.496,295.891,227.916z"/>
<polygon style="fill:#656D78;" points="431.841,19.993 47.983,179.934 47.983,163.94 431.841,3.999 "/>
<g style="opacity:0.2;">
	<polygon points="431.841,19.993 47.983,179.934 47.983,163.94 431.841,3.999 	"/>
</g>
<g style="opacity:0.2;">
	<polygon style="fill:#FFFFFF;" points="47.983,163.94 47.983,171.937 431.841,11.996 431.841,3.999 	"/>
</g>
<g>
	<rect x="231.915" y="323.886" style="fill:#656D78;" width="15.994" height="111.96"/>
	<rect x="271.896" y="323.886" style="fill:#656D78;" width="15.994" height="111.96"/>
</g>
<g style="opacity:0.1;">
	<rect x="271.896" y="323.886" width="15.994" height="111.96"/>
</g>
<g style="opacity:0.1;">
	<rect x="231.915" y="323.886" width="15.994" height="111.96"/>
</g>
<g>
	<path style="fill:#FFCE54;" d="M231.915,459.839c4.416,0,7.997-3.577,7.997-7.998h-15.994
		C223.917,456.261,227.499,459.839,231.915,459.839z"/>
	<path style="fill:#FFCE54;" d="M259.904,459.839c4.421,0,7.997-3.577,7.997-7.998h-15.993
		C251.908,456.261,255.488,459.839,259.904,459.839z"/>
	<path style="fill:#FFCE54;" d="M287.894,459.839c4.42,0,7.997-3.577,7.997-7.998h-15.994
		C279.897,456.261,283.474,459.839,287.894,459.839z"/>
</g>
<g style="opacity:0.2;">
	<rect x="175.936" y="179.936" width="167.94" height="7.997"/>
</g>
<g style="opacity:0.2;">
	<rect x="31.986" y="323.886" width="15.994" height="7.997"/>
</g>
<g style="opacity:0.2;">
	<rect x="463.826" y="323.886" width="15.994" height="7.997"/>
</g>
<g style="opacity:0.2;">
	<rect x="271.896" y="323.886" width="15.994" height="7.997"/>
</g>
<g style="opacity:0.2;">
	<rect x="231.915" y="323.886" width="15.994" height="7.997"/>
</g>
<g style="opacity:0.2;">
	<rect x="271.896" y="427.846" width="15.994" height="7.996"/>
</g>
<g style="opacity:0.2;">
	<rect x="231.915" y="427.846" width="15.994" height="7.996"/>
</g>
<g style="opacity:0.2;">
	<rect x="455.836" y="275.896" width="7.997" height="47.982"/>
</g>
<g style="opacity:0.2;">
	<rect x="47.986" y="275.896" width="7.997" height="47.982"/>
</g>
<g>
	<path style="fill:#FFCE54;" d="M39.986,499.815c0,4.42-3.581,7.997-7.997,7.997s-7.997-3.577-7.997-7.997s3.581-7.997,7.997-7.997
		S39.986,495.395,39.986,499.815z"/>
	<path style="fill:#FFCE54;" d="M487.82,499.815c0,4.42-3.577,7.997-7.997,7.997c-4.421,0-7.997-3.577-7.997-7.997
		s3.576-7.997,7.997-7.997C484.243,491.818,487.82,495.395,487.82,499.815z"/>
</g>
<g style="opacity:0.2;">
	<rect x="31.986" y="267.906" style="fill:#FFFFFF;" width="7.997" height="55.979"/>
</g>
<g style="opacity:0.2;">
	<rect x="31.986" y="331.876" style="fill:#FFFFFF;" width="7.997" height="151.94"/>
</g>
<g style="opacity:0.2;">
	<rect x="471.826" y="267.906" width="7.997" height="55.979"/>
</g>
<g style="opacity:0.2;">
	<rect x="471.826" y="331.876" width="7.997" height="151.94"/>
</g>
<g style="opacity:0.2;">
	<rect x="231.915" y="331.876" style="fill:#FFFFFF;" width="7.997" height="96.3"/>
</g>
<g style="opacity:0.2;">
	<rect x="271.896" y="331.876" style="fill:#FFFFFF;" width="7.997" height="96.3"/>
</g>
<g style="opacity:0.2;">
	<rect x="211.926" y="435.836" style="fill:#FFFFFF;" width="7.997" height="33.32"/>
</g>
<g style="opacity:0.2;">
	<rect x="299.886" y="435.836" width="7.997" height="33.32"/>
</g>
<rect x="79.965" y="275.896" style="fill:#FFFFFF;" width="351.87" height="7.997"/>
<g style="opacity:0.2;">
	<rect x="55.976" y="275.896" style="fill:#FFFFFF;" width="23.991" height="7.997"/>
</g>
<g style="opacity:0.2;">
	<rect x="431.846" y="275.896" style="fill:#FFFFFF;" width="23.991" height="7.997"/>
</g>
<g style="opacity:0.2;">
	<rect x="55.976" y="315.886" width="399.85" height="7.997"/>
</g>
<g style="opacity:0.2;">
	<rect x="47.986" y="267.906" width="415.85" height="7.997"/>
</g>
<g style="opacity:0.2;">
	<rect x="47.986" y="187.936" style="fill:#FFFFFF;" width="7.997" height="79.97"/>
</g>
<g style="opacity:0.2;">
	<rect x="455.836" y="187.936" width="7.997" height="79.97"/>
</g>
<g>
	<path style="fill:#3A3847;" d="M479.823,327.88H31.989c-2.21,0-3.998-1.789-3.998-3.999s1.788-3.999,3.998-3.999h447.834
		c2.21,0,3.998,1.789,3.998,3.999S482.033,327.88,479.823,327.88z"/>
	<path style="fill:#3A3847;" d="M31.989,487.82c-2.21,0-3.998-1.788-3.998-3.999V331.878c0-2.21,1.788-3.998,3.998-3.998
		s3.999,1.788,3.999,3.998v151.943C35.988,486.032,34.199,487.82,31.989,487.82z"/>
	<path style="fill:#3A3847;" d="M47.983,487.82c-2.21,0-3.998-1.788-3.998-3.999V331.878c0-2.21,1.788-3.998,3.998-3.998
		s3.998,1.788,3.998,3.998v151.943C51.981,486.032,50.193,487.82,47.983,487.82z"/>
	<path style="fill:#3A3847;" d="M47.983,487.82H31.989c-2.21,0-3.998-1.788-3.998-3.999c0-2.21,1.788-3.998,3.998-3.998h15.994
		c2.21,0,3.998,1.788,3.998,3.998C51.981,486.032,50.193,487.82,47.983,487.82z"/>
	<path style="fill:#3A3847;" d="M463.829,487.82c-2.21,0-3.999-1.788-3.999-3.999V331.878c0-2.21,1.789-3.998,3.999-3.998
		s3.999,1.788,3.999,3.998v151.943C467.828,486.032,466.039,487.82,463.829,487.82z"/>
	<path style="fill:#3A3847;" d="M479.823,487.82c-2.21,0-3.999-1.788-3.999-3.999V331.878c0-2.21,1.789-3.998,3.999-3.998
		s3.998,1.788,3.998,3.998v151.943C483.821,486.032,482.033,487.82,479.823,487.82z"/>
	<path style="fill:#3A3847;" d="M479.823,487.82h-15.994c-2.21,0-3.999-1.788-3.999-3.999c0-2.21,1.789-3.998,3.999-3.998h15.994
		c2.21,0,3.998,1.788,3.998,3.998C483.821,486.032,482.033,487.82,479.823,487.82z"/>
	<path style="fill:#3A3847;" d="M31.989,327.88c-2.21,0-3.998-1.789-3.998-3.999v-55.979c0-2.21,1.788-3.998,3.998-3.998
		s3.999,1.788,3.999,3.998v55.979C35.988,326.091,34.199,327.88,31.989,327.88z"/>
	<path style="fill:#3A3847;" d="M47.983,271.9H31.989c-2.21,0-3.998-1.788-3.998-3.999c0-2.21,1.788-3.998,3.998-3.998h15.994
		c2.21,0,3.998,1.788,3.998,3.998C51.981,270.112,50.193,271.9,47.983,271.9z"/>
	<path style="fill:#3A3847;" d="M47.983,319.882c-2.21,0-3.998-1.788-3.998-3.998v-47.982c0-2.21,1.788-3.998,3.998-3.998
		s3.998,1.788,3.998,3.998v47.982C51.981,318.094,50.193,319.882,47.983,319.882z"/>
	<path style="fill:#3A3847;" d="M79.971,279.897H55.98c-2.21,0-3.999-1.789-3.999-3.999s1.789-3.998,3.999-3.998h23.991
		c2.21,0,3.998,1.788,3.998,3.998S82.181,279.897,79.971,279.897z"/>
	<path style="fill:#3A3847;" d="M79.971,295.891c-2.21,0-3.999-1.789-3.999-3.999v-15.994c0-2.21,1.789-3.998,3.999-3.998
		s3.998,1.788,3.998,3.998v15.994C83.969,294.102,82.181,295.891,79.971,295.891z"/>
	<path style="fill:#3A3847;" d="M479.823,327.88c-2.21,0-3.999-1.789-3.999-3.999v-55.979c0-2.21,1.789-3.998,3.999-3.998
		s3.998,1.788,3.998,3.998v55.979C483.821,326.091,482.033,327.88,479.823,327.88z"/>
	<path style="fill:#3A3847;" d="M479.823,271.9h-15.994c-2.21,0-3.999-1.788-3.999-3.999c0-2.21,1.789-3.998,3.999-3.998h15.994
		c2.21,0,3.998,1.788,3.998,3.998C483.821,270.112,482.033,271.9,479.823,271.9z"/>
	<path style="fill:#3A3847;" d="M463.829,319.882c-2.21,0-3.999-1.788-3.999-3.998v-47.982c0-2.21,1.789-3.998,3.999-3.998
		s3.999,1.788,3.999,3.998v47.982C467.828,318.094,466.039,319.882,463.829,319.882z"/>
	<path style="fill:#3A3847;" d="M455.832,279.897h-23.991c-2.21,0-3.999-1.789-3.999-3.999s1.789-3.998,3.999-3.998h23.991
		c2.21,0,3.998,1.788,3.998,3.998S458.042,279.897,455.832,279.897z"/>
	<path style="fill:#3A3847;" d="M431.841,295.891c-2.21,0-3.999-1.789-3.999-3.999v-15.994c0-2.21,1.789-3.998,3.999-3.998
		s3.999,1.788,3.999,3.998v15.994C435.84,294.102,434.051,295.891,431.841,295.891z"/>
	<path style="fill:#3A3847;" d="M431.841,295.891H79.971c-2.21,0-3.999-1.789-3.999-3.999s1.789-3.998,3.999-3.998H431.84
		c2.21,0,3.999,1.788,3.999,3.998S434.051,295.891,431.841,295.891z"/>
	<path style="fill:#3A3847;" d="M95.965,279.897h-7.997c-2.21,0-3.999-1.789-3.999-3.999s1.789-3.998,3.999-3.998h7.997
		c2.21,0,3.998,1.788,3.998,3.998S98.175,279.897,95.965,279.897z"/>
	<path style="fill:#3A3847;" d="M95.965,287.894c-2.21,0-3.999-1.788-3.999-3.999v-7.997c0-2.21,1.789-3.998,3.999-3.998
		s3.998,1.788,3.998,3.998v7.997C99.964,286.106,98.175,287.894,95.965,287.894z"/>
	<path style="fill:#3A3847;" d="M111.96,279.897h-7.997c-2.21,0-3.999-1.789-3.999-3.999s1.789-3.998,3.999-3.998h7.997
		c2.21,0,3.998,1.788,3.998,3.998S114.17,279.897,111.96,279.897z"/>
	<path style="fill:#3A3847;" d="M111.96,287.894c-2.21,0-3.999-1.788-3.999-3.999v-7.997c0-2.21,1.789-3.998,3.999-3.998
		s3.998,1.788,3.998,3.998v7.997C115.958,286.106,114.17,287.894,111.96,287.894z"/>
	<path style="fill:#3A3847;" d="M127.954,279.897h-7.997c-2.21,0-3.999-1.789-3.999-3.999s1.789-3.998,3.999-3.998h7.997
		c2.21,0,3.998,1.788,3.998,3.998S130.163,279.897,127.954,279.897z"/>
	<path style="fill:#3A3847;" d="M127.954,287.894c-2.211,0-3.999-1.788-3.999-3.999v-7.997c0-2.21,1.788-3.998,3.999-3.998
		c2.21,0,3.998,1.788,3.998,3.998v7.997C131.952,286.106,130.163,287.894,127.954,287.894z"/>
	<path style="fill:#3A3847;" d="M143.948,279.897h-7.997c-2.211,0-3.999-1.789-3.999-3.999s1.788-3.998,3.999-3.998h7.997
		c2.21,0,3.998,1.788,3.998,3.998S146.158,279.897,143.948,279.897z"/>
	<path style="fill:#3A3847;" d="M143.948,287.894c-2.211,0-3.999-1.788-3.999-3.999v-7.997c0-2.21,1.788-3.998,3.999-3.998
		c2.21,0,3.998,1.788,3.998,3.998v7.997C147.945,286.106,146.158,287.894,143.948,287.894z"/>
	<path style="fill:#3A3847;" d="M159.941,279.897h-7.996c-2.211,0-3.999-1.789-3.999-3.999s1.788-3.998,3.999-3.998h7.996
		c2.211,0,3.999,1.788,3.999,3.998S162.152,279.897,159.941,279.897z"/>
	<path style="fill:#3A3847;" d="M159.941,287.894c-2.21,0-3.998-1.788-3.998-3.999v-7.997c0-2.21,1.788-3.998,3.998-3.998
		c2.211,0,3.999,1.788,3.999,3.998v7.997C163.939,286.106,162.152,287.894,159.941,287.894z"/>
	<path style="fill:#3A3847;" d="M175.935,279.897h-7.997c-2.21,0-3.998-1.789-3.998-3.999s1.788-3.998,3.998-3.998h7.997
		c2.211,0,3.999,1.788,3.999,3.998S178.146,279.897,175.935,279.897z"/>
	<path style="fill:#3A3847;" d="M175.935,287.894c-2.21,0-3.998-1.788-3.998-3.999v-7.997c0-2.21,1.788-3.998,3.998-3.998
		c2.211,0,3.999,1.788,3.999,3.998v7.997C179.934,286.106,178.146,287.894,175.935,287.894z"/>
	<path style="fill:#3A3847;" d="M191.928,279.897h-7.997c-2.21,0-3.998-1.789-3.998-3.999s1.788-3.998,3.998-3.998h7.997
		c2.21,0,3.999,1.788,3.999,3.998S194.139,279.897,191.928,279.897z"/>
	<path style="fill:#3A3847;" d="M191.928,287.894c-2.21,0-3.998-1.788-3.998-3.999v-7.997c0-2.21,1.788-3.998,3.998-3.998
		s3.999,1.788,3.999,3.998v7.997C195.928,286.106,194.139,287.894,191.928,287.894z"/>
	<path style="fill:#3A3847;" d="M207.924,279.897h-7.997c-2.21,0-3.998-1.789-3.998-3.999s1.788-3.998,3.998-3.998h7.997
		c2.21,0,3.999,1.788,3.999,3.998S210.133,279.897,207.924,279.897z"/>
	<path style="fill:#3A3847;" d="M207.924,287.894c-2.21,0-3.998-1.788-3.998-3.999v-7.997c0-2.21,1.788-3.998,3.998-3.998
		s3.999,1.788,3.999,3.998v7.997C211.923,286.106,210.133,287.894,207.924,287.894z"/>
	<path style="fill:#3A3847;" d="M223.917,279.897h-7.997c-2.21,0-3.998-1.789-3.998-3.999s1.788-3.998,3.998-3.998h7.997
		c2.21,0,3.999,1.788,3.999,3.998S226.128,279.897,223.917,279.897z"/>
	<path style="fill:#3A3847;" d="M223.917,287.894c-2.21,0-3.998-1.788-3.998-3.999v-7.997c0-2.21,1.788-3.998,3.998-3.998
		s3.999,1.788,3.999,3.998v7.997C227.917,286.106,226.128,287.894,223.917,287.894z"/>
	<path style="fill:#3A3847;" d="M239.911,279.897h-7.997c-2.21,0-3.998-1.789-3.998-3.999s1.788-3.998,3.998-3.998h7.997
		c2.21,0,3.999,1.788,3.999,3.998S242.122,279.897,239.911,279.897z"/>
	<path style="fill:#3A3847;" d="M239.911,287.894c-2.21,0-3.998-1.788-3.998-3.999v-7.997c0-2.21,1.788-3.998,3.998-3.998
		s3.999,1.788,3.999,3.998v7.997C243.911,286.106,242.122,287.894,239.911,287.894z"/>
	<path style="fill:#3A3847;" d="M255.906,279.897h-7.997c-2.21,0-3.998-1.789-3.998-3.999s1.788-3.998,3.998-3.998h7.997
		c2.21,0,3.998,1.788,3.998,3.998S258.116,279.897,255.906,279.897z"/>
	<path style="fill:#3A3847;" d="M255.906,287.894c-2.21,0-3.998-1.788-3.998-3.999v-7.997c0-2.21,1.788-3.998,3.998-3.998
		c2.21,0,3.998,1.788,3.998,3.998v7.997C259.904,286.106,258.116,287.894,255.906,287.894z"/>
	<path style="fill:#3A3847;" d="M271.9,279.897h-7.997c-2.21,0-3.999-1.789-3.999-3.999s1.789-3.998,3.999-3.998h7.997
		c2.21,0,3.998,1.788,3.998,3.998S274.11,279.897,271.9,279.897z"/>
	<path style="fill:#3A3847;" d="M271.9,287.894c-2.21,0-3.999-1.788-3.999-3.999v-7.997c0-2.21,1.789-3.998,3.999-3.998
		s3.998,1.788,3.998,3.998v7.997C275.898,286.106,274.11,287.894,271.9,287.894z"/>
	<path style="fill:#3A3847;" d="M287.894,279.897h-7.997c-2.21,0-3.999-1.789-3.999-3.999s1.789-3.998,3.999-3.998h7.997
		c2.21,0,3.998,1.788,3.998,3.998S290.104,279.897,287.894,279.897z"/>
	<path style="fill:#3A3847;" d="M287.894,287.894c-2.211,0-3.999-1.788-3.999-3.999v-7.997c0-2.21,1.788-3.998,3.999-3.998
		c2.21,0,3.998,1.788,3.998,3.998v7.997C291.892,286.106,290.104,287.894,287.894,287.894z"/>
	<path style="fill:#3A3847;" d="M303.888,279.897h-7.997c-2.21,0-3.999-1.789-3.999-3.999s1.789-3.998,3.999-3.998h7.997
		c2.21,0,3.998,1.788,3.998,3.998S306.098,279.897,303.888,279.897z"/>
	<path style="fill:#3A3847;" d="M303.888,287.894c-2.211,0-3.999-1.788-3.999-3.999v-7.997c0-2.21,1.788-3.998,3.999-3.998
		c2.21,0,3.998,1.788,3.998,3.998v7.997C307.886,286.106,306.098,287.894,303.888,287.894z"/>
	<path style="fill:#3A3847;" d="M319.883,279.897h-7.997c-2.21,0-3.999-1.789-3.999-3.999s1.789-3.998,3.999-3.998h7.997
		c2.21,0,3.998,1.788,3.998,3.998S322.093,279.897,319.883,279.897z"/>
	<path style="fill:#3A3847;" d="M319.883,287.894c-2.211,0-3.999-1.788-3.999-3.999v-7.997c0-2.21,1.788-3.998,3.999-3.998
		c2.21,0,3.998,1.788,3.998,3.998v7.997C323.881,286.106,322.093,287.894,319.883,287.894z"/>
	<path style="fill:#3A3847;" d="M335.877,279.897h-7.998c-2.209,0-3.998-1.789-3.998-3.999s1.789-3.998,3.998-3.998h7.998
		c2.21,0,3.998,1.788,3.998,3.998S338.087,279.897,335.877,279.897z"/>
	<path style="fill:#3A3847;" d="M335.877,287.894c-2.211,0-3.999-1.788-3.999-3.999v-7.997c0-2.21,1.788-3.998,3.999-3.998
		c2.21,0,3.998,1.788,3.998,3.998v7.997C339.875,286.106,338.087,287.894,335.877,287.894z"/>
	<path style="fill:#3A3847;" d="M351.871,279.897h-7.998c-2.21,0-3.998-1.789-3.998-3.999s1.788-3.998,3.998-3.998h7.998
		c2.209,0,3.998,1.788,3.998,3.998S354.08,279.897,351.871,279.897z"/>
	<path style="fill:#3A3847;" d="M351.871,287.894c-2.211,0-3.999-1.788-3.999-3.999v-7.997c0-2.21,1.788-3.998,3.999-3.998
		c2.209,0,3.998,1.788,3.998,3.998v7.997C355.869,286.106,354.08,287.894,351.871,287.894z"/>
	<path style="fill:#3A3847;" d="M367.865,279.897h-7.998c-2.21,0-3.998-1.789-3.998-3.999s1.788-3.998,3.998-3.998h7.998
		c2.209,0,3.998,1.788,3.998,3.998S370.074,279.897,367.865,279.897z"/>
	<path style="fill:#3A3847;" d="M367.865,287.894c-2.211,0-3.999-1.788-3.999-3.999v-7.997c0-2.21,1.788-3.998,3.999-3.998
		c2.209,0,3.998,1.788,3.998,3.998v7.997C371.863,286.106,370.074,287.894,367.865,287.894z"/>
	<path style="fill:#3A3847;" d="M383.858,279.897h-7.997c-2.21,0-3.998-1.789-3.998-3.999s1.788-3.998,3.998-3.998h7.997
		c2.21,0,3.999,1.788,3.999,3.998S386.068,279.897,383.858,279.897z"/>
	<path style="fill:#3A3847;" d="M383.858,287.894c-2.21,0-3.998-1.788-3.998-3.999v-7.997c0-2.21,1.788-3.998,3.998-3.998
		s3.999,1.788,3.999,3.998v7.997C387.857,286.106,386.068,287.894,383.858,287.894z"/>
	<path style="fill:#3A3847;" d="M399.852,279.897h-7.997c-2.21,0-3.998-1.789-3.998-3.999s1.788-3.998,3.998-3.998h7.997
		c2.21,0,3.999,1.788,3.999,3.998S402.062,279.897,399.852,279.897z"/>
	<path style="fill:#3A3847;" d="M399.852,287.894c-2.21,0-3.998-1.788-3.998-3.999v-7.997c0-2.21,1.788-3.998,3.998-3.998
		s3.999,1.788,3.999,3.998v7.997C403.851,286.106,402.062,287.894,399.852,287.894z"/>
	<path style="fill:#3A3847;" d="M415.846,279.897h-7.997c-2.21,0-3.998-1.789-3.998-3.999s1.788-3.998,3.998-3.998h7.997
		c2.21,0,3.999,1.788,3.999,3.998S418.056,279.897,415.846,279.897z"/>
	<path style="fill:#3A3847;" d="M415.846,287.894c-2.21,0-3.998-1.788-3.998-3.999v-7.997c0-2.21,1.788-3.998,3.998-3.998
		s3.999,1.788,3.999,3.998v7.997C419.845,286.106,418.056,287.894,415.846,287.894z"/>
	<path style="fill:#3A3847;" d="M431.841,279.897h-7.997c-2.21,0-3.998-1.789-3.998-3.999s1.788-3.998,3.998-3.998h7.997
		c2.21,0,3.999,1.788,3.999,3.998S434.051,279.897,431.841,279.897z"/>
	<path style="fill:#3A3847;" d="M47.983,263.903c-2.21,0-3.998-1.789-3.998-3.998v-71.974c0-2.21,1.788-3.999,3.998-3.999
		s3.998,1.789,3.998,3.999v71.974C51.981,262.114,50.193,263.903,47.983,263.903z"/>
	<path style="fill:#3A3847;" d="M463.829,263.903c-2.21,0-3.999-1.789-3.999-3.998v-71.974c0-2.21,1.789-3.999,3.999-3.999
		s3.999,1.789,3.999,3.999v71.974C467.828,262.114,466.039,263.903,463.829,263.903z"/>
	<path style="fill:#3A3847;" d="M463.829,191.929H47.983c-2.21,0-3.998-1.788-3.998-3.998s1.788-3.999,3.998-3.999h415.846
		c2.21,0,3.999,1.789,3.999,3.999C467.828,190.141,466.039,191.929,463.829,191.929z"/>
	<path style="fill:#3A3847;" d="M447.835,263.903c-2.21,0-3.999-1.789-3.999-3.998v-55.979c0-2.21,1.789-3.999,3.999-3.999
		s3.999,1.789,3.999,3.999v55.979C451.834,262.114,450.045,263.903,447.835,263.903z"/>
	<path style="fill:#3A3847;" d="M63.977,263.903c-2.21,0-3.999-1.789-3.999-3.998v-55.979c0-2.21,1.789-3.999,3.999-3.999
		c2.21,0,3.998,1.789,3.998,3.999v55.979C67.975,262.114,66.187,263.903,63.977,263.903z"/>
	<path style="fill:#3A3847;" d="M343.873,183.932c-0.421,0-0.843-0.062-1.265-0.203c-2.093-0.703-3.226-2.967-2.53-5.061
		l7.997-23.991c0.703-2.085,2.937-3.225,5.061-2.53c2.093,0.703,3.226,2.968,2.53,5.061l-7.997,23.991
		C347.106,182.871,345.545,183.932,343.873,183.932z"/>
	<path style="fill:#3A3847;" d="M175.935,183.932c-1.675,0-3.232-1.062-3.791-2.733l-7.997-23.991
		c-0.699-2.093,0.434-4.358,2.526-5.061c2.116-0.695,4.357,0.445,5.057,2.53l7.997,23.991c0.699,2.093-0.434,4.358-2.526,5.061
		C176.779,183.87,176.353,183.932,175.935,183.932z"/>
	<path style="fill:#3A3847;" d="M351.871,159.941c-1.023,0-2.047-0.39-2.828-1.171c-0.102-0.094-16.915-14.823-89.139-14.823
		c-72.227,0-89.037,14.729-89.197,14.877c-1.601,1.476-4.111,1.437-5.622-0.141c-1.508-1.57-1.512-4.03,0.027-5.568
		c0.698-0.703,18.048-17.166,94.792-17.166c76.745,0,94.091,16.462,94.793,17.166c1.562,1.562,1.562,4.092,0,5.654
		C353.917,159.551,352.893,159.941,351.871,159.941z"/>
	<path style="fill:#3A3847;" d="M47.983,167.938c-1.565,0-3.05-0.921-3.69-2.46c-0.851-2.038,0.113-4.381,2.152-5.232L430.302,0.305
		c2.038-0.82,4.381,0.117,5.225,2.155c0.858,2.039-0.109,4.381-2.148,5.232L49.521,167.634
		C49.018,167.837,48.499,167.938,47.983,167.938z"/>
	<path style="fill:#3A3847;" d="M47.983,183.932c-1.565,0-3.05-0.921-3.69-2.46c-0.851-2.038,0.113-4.381,2.152-5.232L430.302,16.3
		c2.038-0.812,4.381,0.109,5.225,2.155c0.858,2.038-0.109,4.381-2.148,5.232L49.521,183.628
		C49.018,183.831,48.499,183.932,47.983,183.932z"/>
	<path style="fill:#3A3847;" d="M47.983,183.932c-2.21,0-3.998-1.788-3.998-3.998V163.94c0-2.21,1.788-3.999,3.998-3.999
		s3.998,1.789,3.998,3.999v15.994C51.981,182.144,50.193,183.932,47.983,183.932z"/>
	<path style="fill:#3A3847;" d="M431.841,23.992c-2.21,0-3.999-1.788-3.999-3.999V3.999c0-2.21,1.789-3.999,3.999-3.999
		s3.999,1.789,3.999,3.999v15.994C435.84,22.204,434.051,23.992,431.841,23.992z"/>
	<path style="fill:#3A3847;" d="M423.844,183.932c-1.499,0-2.944-0.851-3.623-2.304l-55.98-119.954
		c-0.938-2.007-0.07-4.382,1.937-5.318c1.999-0.945,4.373-0.07,5.311,1.929l55.979,119.956c0.937,2.007,0.07,4.381-1.937,5.318
		C424.984,183.815,424.414,183.932,423.844,183.932z"/>
	<path style="fill:#3A3847;" d="M287.894,431.841c-2.211,0-3.999-1.788-3.999-3.998v-95.965c0-2.21,1.788-3.998,3.999-3.998
		c2.21,0,3.998,1.788,3.998,3.998v95.965C291.892,430.052,290.104,431.841,287.894,431.841z"/>
	<path style="fill:#3A3847;" d="M271.9,431.841c-2.21,0-3.999-1.788-3.999-3.998v-95.965c0-2.21,1.789-3.998,3.999-3.998
		s3.998,1.788,3.998,3.998v95.965C275.898,430.052,274.11,431.841,271.9,431.841z"/>
	<path style="fill:#3A3847;" d="M247.909,431.841c-2.21,0-3.998-1.788-3.998-3.998v-95.965c0-2.21,1.788-3.998,3.998-3.998
		s3.999,1.788,3.999,3.998v95.965C251.908,430.052,250.118,431.841,247.909,431.841z"/>
	<path style="fill:#3A3847;" d="M231.915,431.841c-2.21,0-3.998-1.788-3.998-3.998v-95.965c0-2.21,1.788-3.998,3.998-3.998
		s3.999,1.788,3.999,3.998v95.965C235.913,430.052,234.124,431.841,231.915,431.841z"/>
	<path style="fill:#3A3847;" d="M307.886,439.838h-95.964c-2.21,0-3.999-1.788-3.999-3.999c0-2.209,1.789-3.998,3.999-3.998h95.964
		c2.21,0,3.999,1.789,3.999,3.998C311.885,438.05,310.096,439.838,307.886,439.838z"/>
	<path style="fill:#3A3847;" d="M307.886,471.826c-2.21,0-3.998-1.788-3.998-3.999v-31.988c0-2.209,1.788-3.998,3.998-3.998
		s3.999,1.789,3.999,3.998v31.988C311.885,470.038,310.096,471.826,307.886,471.826z"/>
	<path style="fill:#3A3847;" d="M307.886,471.826h-95.964c-2.21,0-3.999-1.788-3.999-3.999c0-2.21,1.789-3.998,3.999-3.998h95.964
		c2.21,0,3.999,1.788,3.999,3.998C311.885,470.038,310.096,471.826,307.886,471.826z"/>
	<path style="fill:#3A3847;" d="M211.923,471.826c-2.21,0-3.999-1.788-3.999-3.999v-31.988c0-2.209,1.789-3.998,3.999-3.998
		s3.998,1.789,3.998,3.998v31.988C215.921,470.038,214.133,471.826,211.923,471.826z"/>
	<path style="fill:#3A3847;" d="M231.915,463.829c-6.614,0-11.995-5.381-11.995-11.996c0-2.21,1.788-3.998,3.998-3.998
		s3.999,1.788,3.999,3.998c0,2.203,1.792,3.999,3.998,3.999c2.21,0,3.999,1.788,3.999,3.999
		C235.913,462.04,234.124,463.829,231.915,463.829z"/>
	<path style="fill:#3A3847;" d="M231.915,463.829c-2.21,0-3.998-1.789-3.998-3.998c0-2.211,1.788-3.999,3.998-3.999
		c2.206,0,3.999-1.796,3.999-3.999c0-2.21,1.788-3.998,3.998-3.998s3.999,1.788,3.999,3.998
		C243.911,458.448,238.529,463.829,231.915,463.829z"/>
	<path style="fill:#3A3847;" d="M259.904,463.829c-6.614,0-11.995-5.381-11.995-11.996c0-2.21,1.788-3.998,3.999-3.998
		c2.21,0,3.998,1.788,3.998,3.998c0,2.203,1.792,3.999,3.998,3.999c2.211,0,3.999,1.788,3.999,3.999
		C263.903,462.04,262.115,463.829,259.904,463.829z"/>
	<path style="fill:#3A3847;" d="M259.904,463.829c-2.21,0-3.998-1.789-3.998-3.998c0-2.211,1.788-3.999,3.998-3.999
		c2.207,0,3.999-1.796,3.999-3.999c0-2.21,1.788-3.998,3.998-3.998s3.999,1.788,3.999,3.998
		C271.9,458.448,266.519,463.829,259.904,463.829z"/>
	<path style="fill:#3A3847;" d="M287.894,463.829c-6.615,0-11.996-5.381-11.996-11.996c0-2.21,1.789-3.998,3.999-3.998
		s3.998,1.788,3.998,3.998c0,2.203,1.796,3.999,3.999,3.999c2.21,0,3.998,1.788,3.998,3.999
		C291.892,462.04,290.104,463.829,287.894,463.829z"/>
	<path style="fill:#3A3847;" d="M287.894,463.829c-2.211,0-3.999-1.789-3.999-3.998c0-2.211,1.788-3.999,3.999-3.999
		c2.202,0,3.998-1.796,3.998-3.999c0-2.21,1.789-3.998,3.999-3.998s3.998,1.788,3.998,3.998
		C299.889,458.448,294.509,463.829,287.894,463.829z"/>
	<path style="fill:#3A3847;" d="M31.989,511.811c-6.614,0-11.995-5.381-11.995-11.996c0-6.614,5.381-11.995,11.995-11.995
		c6.615,0,11.996,5.381,11.996,11.995C43.985,506.43,38.604,511.811,31.989,511.811z M31.989,495.817
		c-2.206,0-3.998,1.796-3.998,3.998c0,2.203,1.792,3.999,3.998,3.999s3.999-1.796,3.999-3.999
		C35.988,497.613,34.195,495.817,31.989,495.817z"/>
	<path style="fill:#3A3847;" d="M479.823,511.811c-6.614,0-11.995-5.381-11.995-11.996c0-6.614,5.381-11.995,11.995-11.995
		s11.995,5.381,11.995,11.995C491.818,506.43,486.437,511.811,479.823,511.811z M479.823,495.817c-2.202,0-3.999,1.796-3.999,3.998
		c0,2.203,1.797,3.999,3.999,3.999s3.998-1.796,3.998-3.999C483.821,497.613,482.025,495.817,479.823,495.817z"/>
	<path style="fill:#3A3847;" d="M259.904,239.912c-9.379,0-39.984-0.867-39.984-11.996s30.605-11.996,39.984-11.996
		c9.38,0,39.985,0.867,39.985,11.996S269.284,239.912,259.904,239.912z M229.451,227.916c4.178,1.757,14.663,3.999,30.453,3.999
		c15.791,0,26.271-2.241,30.458-3.999c-4.179-1.765-14.667-3.999-30.458-3.999C244.109,223.918,233.624,226.151,229.451,227.916z"/>
</g>
<g>
</g>
<g>
</g>
<g>
</g>
<g>
</g>
<g>
</g>
<g>
</g>
<g>
</g>
<g>
</g>
<g>
</g>
<g>
</g>
<g>
</g>
<g>
</g>
<g>
</g>
<g>
</g>
<g>
</g>
</svg>
