<svg height="512" viewBox="0 0 512 512" width="512" xmlns="http://www.w3.org/2000/svg" xmlns:xlink="http://www.w3.org/1999/xlink"><linearGradient id="linear-gradient" gradientUnits="userSpaceOnUse" x1="49.852" x2="393.197" y1="489.642" y2="146.298"><stop offset="0" stop-color="#41dfd0"/><stop offset="1" stop-color="#ee83ef"/></linearGradient><g id="gradient"><path d="m357.708 168h-35.6a76.208 76.208 0 0 1 -71.026-49.221 121.408 121.408 0 0 0 -235.082 42.629v288.592a14.015 14.015 0 0 0 14 14h452a14.015 14.015 0 0 0 14-14v-143.708c0-76.254-62.038-138.292-138.292-138.292zm122.292 248h-16v-64a8 8 0 0 0 -8-8h-400a8 8 0 0 0 -8 8v64h-16v-88h448zm-400 0h-16v-56h16zm16-56h12v40h4v16h-16zm32 40h4v-40h12v40h4v16h-20zm36 0h4v-40h16v40h4v16h-24zm40 0h4v-40h8v56h-12zm28-40h8v40h4v16h-12zm72 56h-12v-16h4v-40h8zm-28-16v16h-16v-16h4v-40h8v40zm-32 32v16h-12v-16zm16 0h16v16h-16zm32 0h12v16h-12zm28 0h16v16h-16zm0-16v-56h12v40h4v16zm32-16h4v-40h12v40h4v16h-20zm36 0h4v-40h16v40h4v16h-24zm40 0h4v-40h16v56h-20zm-396 32h16v16h-16zm32 16v-16h16v16zm32 0v-16h16v16zm32-16h20v16h-20zm36 16v-16h24v16zm40-16h12v16h-12zm148 16v-16h20v16zm36 0v-16h24v16zm40 0v-16h20v16zm52 0h-16v-16h16zm0-136h-448v-150.592a105.408 105.408 0 0 1 204.105-37.008 92.283 92.283 0 0 0 86.007 59.6h35.6a122.431 122.431 0 0 1 122.288 122.292zm-392-24a8 8 0 0 1 -8 8h-16a8 8 0 0 1 0-16h16a8 8 0 0 1 8 8zm96 0a8 8 0 0 1 -8 8h-64a8 8 0 0 1 0-16h64a8 8 0 0 1 8 8z" fill="url(#linear-gradient)"/></g></svg>